<?xml version="1.0" encoding="UTF-8"?>
<svg version="1.1" xmlns="http://www.w3.org/2000/svg" width="600" height="125">
<path d="M0 0 C198 0 396 0 600 0 C600 41.25 600 82.5 600 125 C402 125 204 125 0 125 C0 83.75 0 42.5 0 0 Z " fill="#FDFDFE" transform="translate(0,0)"/>
<path d="M0 0 C25.925625 -0.4640625 25.925625 -0.4640625 52.375 -0.9375 C57.77665527 -1.07406006 63.17831055 -1.21062012 68.74365234 -1.35131836 C114.03928099 -2.01084325 114.03928099 -2.01084325 131.92837524 13.29734802 C134.19517696 15.1604144 136.37866469 16.67622913 139 18 C142.02496878 17.15835673 142.02496878 17.15835673 145 16 C148.66784051 16.42912019 151.38309858 17.55720989 154.5703125 19.37890625 C155.45243408 19.8795459 156.33455566 20.38018555 157.2434082 20.89599609 C158.66979614 21.72091553 158.66979614 21.72091553 160.125 22.5625 C161.13199951 23.13822754 162.13899902 23.71395508 163.17651367 24.30712891 C172.0637059 29.40945163 180.87894305 34.63385492 189.6796875 39.88354492 C195.57873293 43.3986191 201.49450814 46.87524936 207.45703125 50.28125 C208.0623317 50.62753448 208.66763214 50.97381897 209.29127502 51.33059692 C212.20364324 52.99567154 215.11930888 54.65422144 218.0402832 56.30419922 C219.58655396 57.18615967 219.58655396 57.18615967 221.1640625 58.0859375 C222.07623535 58.6020459 222.9884082 59.1181543 223.92822266 59.64990234 C226 61 226 61 227 63 C226.32759277 63.38631592 225.65518555 63.77263184 224.96240234 64.1706543 C212.34343251 71.42479474 199.74604397 78.70955586 187.22583008 86.13330078 C180.18777586 90.30461812 173.12986066 94.44103918 166.0625 98.5625 C165.06138184 99.14652588 164.06026367 99.73055176 163.02880859 100.33227539 C161.1748792 101.41260344 159.3196596 102.49072179 157.46289062 103.56616211 C155.91882296 104.46508255 154.38011872 105.37335038 152.84960938 106.29516602 C148.27883014 109.01991644 148.27883014 109.01991644 145.375 108.8125 C144.59125 108.544375 143.8075 108.27625 143 108 C139.72969249 106.93735952 138.41934924 106.81681059 135.21679688 108.21582031 C133.73276367 109.13766113 133.73276367 109.13766113 132.21875 110.078125 C131.12949219 110.74457031 130.04023438 111.41101563 128.91796875 112.09765625 C127.77841672 112.81474021 126.63909574 113.53219145 125.5 114.25 C124.36151099 114.95317486 123.22219486 115.65501243 122.08203125 116.35546875 C119.97831979 117.65255002 117.8782907 118.95563634 115.78320312 120.26660156 C114.40551758 121.12463379 114.40551758 121.12463379 113 122 C112.00067192 122.78559044 112.00067192 122.78559044 110.9811554 123.58705139 C106.53344827 125.69508696 102.37999309 125.39338254 97.51831055 125.34057617 C96.44719182 125.34093778 95.37607309 125.34129938 94.27249622 125.34167194 C90.81037931 125.3394354 87.34874882 125.31660113 83.88671875 125.29296875 C81.74727613 125.28855711 79.60783029 125.28549706 77.46838379 125.28381348 C69.5413731 125.26809399 61.61443176 125.22621029 53.6875 125.1875 C35.970625 125.125625 18.25375 125.06375 0 125 C0 83.75 0 42.5 0 0 Z " fill="#015196" transform="translate(0,0)"/>
<path d="M0 0 C1.98213048 0.9779644 3.92655389 2.03401869 5.83984375 3.140625 C7.5420105 4.11890259 7.5420105 4.11890259 9.27856445 5.11694336 C10.49835144 5.82771894 11.71799339 6.53874348 12.9375 7.25 C14.19657855 7.97777984 15.45594037 8.70506983 16.71557617 9.43188477 C20.48367828 11.60995601 24.24323195 13.80244873 28 16 C29.59473145 16.93271729 29.59473145 16.93271729 31.22167969 17.88427734 C42.52713558 24.51205931 53.77652318 31.23444622 65 38 C61.55123895 40.88402396 58.07583543 43.22994714 54.16015625 45.43359375 C53.02513672 46.07627197 51.89011719 46.7189502 50.72070312 47.38110352 C50.12394775 47.71651154 49.52719238 48.05191956 48.91235352 48.39749146 C45.7604011 50.16955471 42.61678271 51.95628693 39.47265625 53.7421875 C38.5232164 54.2809124 38.5232164 54.2809124 37.55459595 54.83052063 C31.66535892 58.17770466 25.82574637 61.60605427 20 65.0625 C19.10361816 65.59174072 18.20723633 66.12098145 17.28369141 66.66625977 C13.55034031 68.873993 9.82927204 71.0938779 6.15234375 73.39453125 C5.09144531 74.04808594 4.03054687 74.70164062 2.9375 75.375 C2.08027344 75.91898437 1.22304687 76.46296875 0.33984375 77.0234375 C-2.63245259 78.26396185 -3.91875168 77.83897203 -7 77 C-9.31054688 75.87109375 -9.31054688 75.87109375 -11.71875 74.4375 C-12.63696533 73.89617432 -13.55518066 73.35484863 -14.5012207 72.79711914 C-15.49081787 72.20406982 -16.48041504 71.61102051 -17.5 71 C-19.64964284 69.72770111 -21.79938707 68.45557352 -23.94921875 67.18359375 C-25.09947339 66.49988228 -26.24970069 65.81612482 -27.39990234 65.13232422 C-31.13710114 62.91431193 -34.88962823 60.723025 -38.64453125 58.53515625 C-39.93361805 57.78324479 -41.22268065 57.03129182 -42.51171875 56.27929688 C-44.3889647 55.18419686 -46.26636076 54.08936332 -48.14453125 52.99584961 C-55.87087761 48.49407455 -63.4953529 43.864458 -71 39 C-67.77132697 35.64415918 -64.52054954 33.43064194 -60.4375 31.25 C-53.35193026 27.36645744 -46.38462172 23.30351618 -39.44247437 19.16928101 C-37.6880083 18.12530246 -35.93181827 17.08428664 -34.17504883 16.04418945 C-28.839499 12.88395063 -23.51366797 9.70982554 -18.21484375 6.48828125 C-16.518369 5.47112092 -14.82176403 4.4541777 -13.125 3.4375 C-11.98550903 2.73101318 -11.98550903 2.73101318 -10.82299805 2.01025391 C-10.12086182 1.59308105 -9.41872559 1.1759082 -8.6953125 0.74609375 C-8.09734863 0.38185303 -7.49938477 0.0176123 -6.88330078 -0.35766602 C-4.21265726 -1.26853756 -2.68819541 -0.82198134 0 0 Z " fill="#FCFDFD" transform="translate(150,24)"/>
<path d="M0 0 C8.188125 -0.061875 16.37625 -0.12375 24.8125 -0.1875 C27.37491455 -0.21481201 29.9373291 -0.24212402 32.57739258 -0.27026367 C34.64143403 -0.27903741 36.70548073 -0.28667924 38.76953125 -0.29296875 C39.81443726 -0.30831665 40.85934326 -0.32366455 41.93591309 -0.33947754 C53.150488 -0.34340926 62.97848841 1.97177542 71.6015625 9.375 C74.19642972 12.04234955 75.34746589 14.35829322 75.5625 18 C75.27307338 22.19668596 73.79604302 24.82611333 71 28 C68.25 29.375 68.25 29.375 66 30 C66.7425 30.721875 67.485 31.44375 68.25 32.1875 C69.61125 33.5796875 69.61125 33.5796875 71 35 C72.1446875 36.1446875 72.1446875 36.1446875 73.3125 37.3125 C75.5764676 40.91807804 75.84861807 43.92040489 75 48 C72.502724 54.56742197 66.88893629 56.98302374 60.83984375 59.8359375 C56.60020233 61.57378226 53.17540398 62.1242416 48.58886719 62.11352539 C46.9450708 62.11334412 46.9450708 62.11334412 45.26806641 62.11315918 C44.12257324 62.10804321 42.97708008 62.10292725 41.796875 62.09765625 C40.73936035 62.09664917 39.6818457 62.09564209 38.59228516 62.09460449 C34.64484573 62.08937553 30.69742177 62.07541426 26.75 62.0625 C13.50875 62.0315625 13.50875 62.0315625 0 62 C0 41.54 0 21.08 0 0 Z " fill="#055398" transform="translate(252,20)"/>
<path d="M0 0 C1.17304687 -0.020625 2.34609375 -0.04125 3.5546875 -0.0625 C14.06847719 -0.10922795 24.58552072 1.20219378 32.875 8.25 C37.33165697 12.79238627 38.50755206 15.23924324 38.50390625 21.80859375 C38.50631821 22.51597183 38.50873016 23.22334991 38.51121521 23.9521637 C38.51024063 25.44057855 38.49693974 26.9290314 38.47192383 28.41723633 C38.4376362 30.67851751 38.45127413 32.93587771 38.47070312 35.19726562 C38.46380239 36.65105809 38.45412792 38.10484057 38.44140625 39.55859375 C38.43052979 40.86626709 38.41965332 42.17394043 38.40844727 43.52124023 C37.68801714 48.55699733 35.87930965 52.41307381 32.05078125 55.921875 C31.43589844 56.27765625 30.82101562 56.6334375 30.1875 57 C29.58550781 57.36609375 28.98351562 57.7321875 28.36328125 58.109375 C27.54214844 58.48578125 26.72101562 58.8621875 25.875 59.25 C25.31393555 59.51111572 24.75287109 59.77223145 24.17480469 60.04125977 C17.20564524 62.84139817 10.09009789 62.73971275 2.70117188 62.69604492 C0.51075902 62.68754177 -1.6770313 62.71635888 -3.8671875 62.74804688 C-15.36988105 62.80546424 -25.18182927 60.88895833 -34.125 53.25 C-37.20715307 49.18277734 -37.61770913 45.56473893 -37.6640625 40.60546875 C-37.67641937 39.87685135 -37.68877625 39.14823395 -37.70150757 38.39753723 C-37.72101298 36.8604022 -37.73229518 35.32314337 -37.73583984 33.78588867 C-37.74990409 31.45340698 -37.81724233 29.12632398 -37.88671875 26.79492188 C-38.07283 14.31700849 -38.07283 14.31700849 -33.96875 9.359375 C-30.93461834 6.60601028 -27.86485357 4.73028571 -24 3.3125 C-23.00742187 2.93222656 -22.01484375 2.55195313 -20.9921875 2.16015625 C-14.00871675 -0.05666757 -7.27295694 0.03134895 0 0 Z " fill="#045397" transform="translate(562.125,19.75)"/>
<path d="M0 0 C34.98 0 69.96 0 106 0 C102.47914644 2.81668285 99.50824176 4.9929173 95.66796875 7.1796875 C94.63502686 7.77120605 93.60208496 8.36272461 92.5378418 8.97216797 C91.432229 9.60010254 90.32661621 10.22803711 89.1875 10.875 C87.42200656 11.88449938 85.65744998 12.8956239 83.89289856 13.9067688 C82.68906549 14.59644409 81.48495154 15.28562929 80.28056335 15.97433472 C74.56473345 19.24352721 68.87282995 22.55306109 63.1875 25.875 C62.22255615 26.43864258 61.2576123 27.00228516 60.26342773 27.58300781 C58.2494401 28.76001571 56.23569212 29.93743377 54.22216797 31.11523438 C51.96629335 32.43477916 49.71014065 33.75383828 47.45361328 35.07226562 C43.7181708 37.2549655 39.98385863 39.439592 36.25 41.625 C35.33163361 42.16225204 35.33163361 42.16225204 34.39471436 42.71035767 C25.48446651 47.92508444 16.60975457 53.19587259 7.81152344 58.59814453 C6.69245605 59.27852783 6.69245605 59.27852783 5.55078125 59.97265625 C4.90794189 60.36718994 4.26510254 60.76172363 3.6027832 61.16821289 C2 62 2 62 0 62 C0 41.54 0 21.08 0 0 Z " fill="#FEFEFE" transform="translate(0,0)"/>
<path d="M0 0 C11.23817863 5.61908932 11.23817863 5.61908932 15.96875 8.4609375 C17.020625 9.08935547 18.0725 9.71777344 19.15625 10.36523438 C20.81140625 11.36006836 20.81140625 11.36006836 22.5 12.375 C24.90479347 13.81234399 27.31152717 15.24641652 29.71875 16.6796875 C30.63116455 17.22329926 30.63116455 17.22329926 31.56201172 17.77789307 C37.67317906 21.41254275 43.83294085 24.96114461 50 28.5 C62.42143005 35.63638003 74.75247761 42.91654568 87.05859375 50.24951172 C89.71304002 51.82922451 92.37122978 53.40235475 95.03125 54.97265625 C96.41676484 55.79410528 97.80219112 56.6157037 99.1875 57.4375 C99.79940186 57.7969873 100.41130371 58.15647461 101.04174805 58.52685547 C102.3781714 59.32337261 103.69251819 60.15681659 105 61 C105 61.33 105 61.66 105 62 C70.35 62 35.7 62 0 62 C0 41.54 0 21.08 0 0 Z " fill="#FDFEFE" transform="translate(0,63)"/>
<path d="M0 0 C1.05896484 -0.00322266 2.11792969 -0.00644531 3.20898438 -0.00976562 C14.35466538 0.06577503 25.73200612 1.35502934 34.3984375 9.0546875 C37.50799684 12.45622424 38.4375 13.49464294 38.4375 18.3125 C33.4875 18.3125 28.5375 18.3125 23.4375 18.3125 C22.7775 16.9925 22.1175 15.6725 21.4375 14.3125 C15.06157301 9.71957243 7.80274958 9.73020394 0.25 9.875 C-0.80380859 9.86791016 -1.85761719 9.86082031 -2.94335938 9.85351562 C-9.44915065 9.90680818 -13.82623864 10.58291137 -19.1862793 14.4987793 C-22.13372565 18.38321765 -21.07900311 24.34483664 -21.06347656 29.08154297 C-21.06250614 31.17425993 -21.10408021 33.2632833 -21.1484375 35.35546875 C-21.15364658 36.69270072 -21.15633266 38.02994538 -21.15625 39.3671875 C-21.16333984 40.57874512 -21.17042969 41.79030273 -21.17773438 43.03857422 C-20.39121849 47.22396234 -18.83970164 48.6807163 -15.5625 51.3125 C-10.31544645 53.06151785 -4.74186732 52.53958141 0.75 52.5625 C1.97396484 52.583125 3.19792969 52.60375 4.45898438 52.625 C5.64427734 52.63015625 6.82957031 52.6353125 8.05078125 52.640625 C9.13141846 52.6499707 10.21205566 52.65931641 11.32543945 52.66894531 C14.96033566 52.2526161 17.32597734 51.21536401 20.4375 49.3125 C23.30681704 45.51677594 23.30681704 45.51677594 23.4375 36.3125 C14.5275 36.3125 5.6175 36.3125 -3.5625 36.3125 C-3.5625 33.3425 -3.5625 30.3725 -3.5625 27.3125 C10.2975 27.3125 24.1575 27.3125 38.4375 27.3125 C38.4375 38.8625 38.4375 50.4125 38.4375 62.3125 C33.4875 62.3125 28.5375 62.3125 23.4375 62.3125 C23.4375 61.6525 23.4375 60.9925 23.4375 60.3125 C22.60049561 60.63557129 21.76349121 60.95864258 20.90112305 61.29150391 C15.19716791 62.97289817 9.38946636 62.68439907 3.48999023 62.68310547 C1.27312966 62.68745462 -0.94169708 62.7237539 -3.15820312 62.76171875 C-13.86240331 62.84591154 -24.11184817 61.52647108 -32.5625 54.3125 C-37.63543805 48.03881147 -37.17391573 41.13905197 -37.08398438 33.44213867 C-37.06251293 31.2513198 -37.08385301 29.06376653 -37.109375 26.87304688 C-37.10673207 25.46613868 -37.10160781 24.05923249 -37.09375 22.65234375 C-37.08923828 21.38769287 -37.08472656 20.12304199 -37.08007812 18.82006836 C-36.35812058 13.92744381 -34.21671144 10.8160308 -30.58984375 7.51953125 C-20.96646492 1.09794949 -11.39131494 -0.17396632 0 0 Z " fill="#055398" transform="translate(470.5625,19.6875)"/>
<path d="M0 0 C24.42 0 48.84 0 74 0 C74 2.64 74 5.28 74 8 C54.2 8 34.4 8 14 8 C14 13.94 14 19.88 14 26 C29.18 26 44.36 26 60 26 C60 28.97 60 31.94 60 35 C45.15 35 30.3 35 15 35 C15 40.61 15 46.22 15 52 C34.8 52 54.6 52 75 52 C75 54.97 75 57.94 75 61 C50.25 61 25.5 61 0 61 C0 40.87 0 20.74 0 0 Z " fill="#045297" transform="translate(344,21)"/>
<path d="M0 0 C2.25048828 1.05297852 2.25048828 1.05297852 4.5703125 2.37890625 C5.45243408 2.8795459 6.33455566 3.38018555 7.2434082 3.89599609 C8.1943335 4.44594238 9.14525879 4.99588867 10.125 5.5625 C11.13199951 6.13822754 12.13899902 6.71395508 13.17651367 7.30712891 C22.0637059 12.40945163 30.87894305 17.63385492 39.6796875 22.88354492 C45.57873293 26.3986191 51.49450814 29.87524936 57.45703125 33.28125 C58.0623317 33.62753448 58.66763214 33.97381897 59.29127502 34.33059692 C62.20364324 35.99567154 65.11930888 37.65422144 68.0402832 39.30419922 C69.58655396 40.18615967 69.58655396 40.18615967 71.1640625 41.0859375 C72.07623535 41.6020459 72.9884082 42.1181543 73.92822266 42.64990234 C76 44 76 44 77 46 C76.32759277 46.38631592 75.65518555 46.77263184 74.96240234 47.1706543 C62.34343251 54.42479474 49.74604397 61.70955586 37.22583008 69.13330078 C30.18777586 73.30461812 23.12986066 77.44103918 16.0625 81.5625 C15.06138184 82.14652588 14.06026367 82.73055176 13.02880859 83.33227539 C11.17302692 84.41368281 9.31478128 85.49087761 7.45361328 86.56298828 C5.93006185 87.45528915 4.41993581 88.3714987 2.93310547 89.32373047 C-1.41158022 92.05979365 -1.41158022 92.05979365 -4.40014648 91.75610352 C-7.15254574 90.95563582 -9.25772287 89.90253967 -11.71875 88.4375 C-12.6360791 87.89665771 -13.5534082 87.35581543 -14.49853516 86.79858398 C-15.48901855 86.20505127 -16.47950195 85.61151855 -17.5 85 C-19.66401011 83.71996351 -21.82807503 82.44001968 -23.9921875 81.16015625 C-25.14429346 80.4755708 -26.29631026 79.79083527 -27.44824219 79.10595703 C-31.65315557 76.60889925 -35.87414712 74.13957433 -40.09608459 71.67144775 C-43.16397061 69.87795425 -46.23071003 68.0826053 -49.29370117 66.28076172 C-55.09029431 62.87122378 -60.89487144 59.47935579 -66.73046875 56.13671875 C-68.27710205 55.24351929 -68.27710205 55.24351929 -69.85498047 54.33227539 C-71.7824419 53.21961749 -73.71486192 52.11549205 -75.65283203 51.02124023 C-76.49571777 50.53212158 -77.33860352 50.04300293 -78.20703125 49.5390625 C-78.9441333 49.11834473 -79.68123535 48.69762695 -80.44067383 48.26416016 C-80.95525146 47.8469873 -81.4698291 47.42981445 -82 47 C-82 46.01 -82 45.02 -82 44 C-81.32759277 43.61368408 -80.65518555 43.22736816 -79.96240234 42.8293457 C-68.33929371 36.14768599 -56.72310777 29.45700048 -45.1875 22.625 C-44.32761475 22.11799561 -43.46772949 21.61099121 -42.58178711 21.08862305 C-37.82178443 18.27874031 -33.07726892 15.44549713 -28.35075378 12.57974243 C-25.70527278 10.97928187 -23.05271299 9.39079034 -20.39907837 7.80389404 C-19.09994563 7.02312491 -17.80396189 6.23709003 -16.51132202 5.44561768 C-14.70152529 4.33820248 -12.88164634 3.24947516 -11.05859375 2.1640625 C-10.00986084 1.52936035 -8.96112793 0.8946582 -7.88061523 0.24072266 C-4.56985951 -1.18526773 -3.35505068 -1.1798317 0 0 Z M-10.12890625 8.71875 C-11.15089111 9.31357178 -12.17287598 9.90839355 -13.22583008 10.52124023 C-14.32693115 11.17423096 -15.42803223 11.82722168 -16.5625 12.5 C-17.71664157 13.17654452 -18.87118976 13.85239581 -20.02612305 14.52758789 C-23.07154104 16.31127559 -26.11023378 18.10611037 -29.1472168 19.90411377 C-31.58423566 21.34556434 -34.02459092 22.78131409 -36.46485901 24.21725464 C-48.04545123 31.03460891 -59.57344693 37.92719519 -71 45 C-68.48920845 47.65283242 -66.15919347 49.68643645 -62.96484375 51.453125 C-62.16892822 51.89946289 -61.3730127 52.34580078 -60.55297852 52.80566406 C-59.68987061 53.28229492 -58.8267627 53.75892578 -57.9375 54.25 C-49.83501836 58.79790477 -41.80253593 63.45004293 -33.81991577 68.20425415 C-32.07116352 69.2448448 -30.32069348 70.28248014 -28.56958008 71.3190918 C-23.81508824 74.13462583 -19.06440144 76.95363988 -14.34765625 79.83203125 C-13.10691712 80.57576494 -11.86604862 81.31928287 -10.625 82.0625 C-9.12839844 82.97708984 -9.12839844 82.97708984 -7.6015625 83.91015625 C-4.43635268 85.23612253 -3.26497592 84.90330395 0 84 C2.36195215 82.88527621 2.36195215 82.88527621 4.71875 81.4375 C5.63688477 80.89617432 6.55501953 80.35484863 7.50097656 79.79711914 C8.4906543 79.20406982 9.48033203 78.61102051 10.5 78 C12.6509967 76.72778856 14.80204052 75.45565678 16.953125 74.18359375 C18.10360994 73.49999595 19.25399861 72.8162361 20.40429688 72.13232422 C26.04481926 68.78251378 31.710397 65.4753285 37.37231445 62.16186523 C39.78391767 60.74989679 42.19422454 59.33572495 44.60449219 57.92147827 C51.39644705 53.93637572 58.19593404 49.96438454 65 46 C62.62431115 43.37670139 60.10945747 41.76594369 57.0390625 40.0234375 C56.02376465 39.44319824 55.0084668 38.86295898 53.96240234 38.26513672 C52.86105957 37.6413916 51.7597168 37.01764648 50.625 36.375 C48.27549718 35.03218949 45.92653526 33.68846696 43.578125 32.34375 C42.96669647 31.99424286 42.35526794 31.64473572 41.72531128 31.28463745 C35.21607946 27.56054139 28.74031279 23.77985978 22.2711792 19.9866333 C20.41408103 18.89791122 18.5559422 17.81098123 16.69775391 16.72412109 C15.53539337 16.04279403 14.37311858 15.36132063 13.2109375 14.6796875 C12.13295898 14.04772461 11.05498047 13.41576172 9.94433594 12.76464844 C7.39131737 11.23453084 4.9010447 9.64172196 2.4140625 8.0078125 C-2.73918641 4.97718328 -5.27346389 5.86666307 -10.12890625 8.71875 Z " fill="#53A5D6" transform="translate(150,17)"/>
<path d="M0 0 C1.00740234 -0.01611328 2.01480469 -0.03222656 3.05273438 -0.04882812 C10.17947602 -0.05347095 16.04202289 0.50421686 21.87426758 4.99707031 C24.32208032 8.12283523 24.20397953 10.14797534 24.21875 14.08984375 C24.22648438 16.06694336 24.22648438 16.06694336 24.234375 18.08398438 C24.22180664 19.11011841 24.22180664 19.11011841 24.20898438 20.15698242 C24.18759639 22.24061004 24.20877712 24.32077716 24.234375 26.40429688 C24.22921875 27.72365234 24.2240625 29.04300781 24.21875 30.40234375 C24.21423828 31.60753662 24.20972656 32.81272949 24.20507812 34.05444336 C23.58218562 37.97543415 22.53223767 39.57532364 19.6875 42.3125 C14.01086806 45.41150753 7.60586119 44.68081915 1.3125 44.6875 C0.1059375 44.71199219 -1.100625 44.73648438 -2.34375 44.76171875 C-9.1961007 44.78430892 -13.82922971 44.59099541 -19.3125 40.3125 C-22.48939703 35.54715446 -21.72303104 30.11658005 -21.73803711 24.54345703 C-21.74992358 22.45095341 -21.79909872 20.36141153 -21.84960938 18.26953125 C-21.85907584 16.932306 -21.86630981 15.5950627 -21.87109375 14.2578125 C-21.88454834 13.04625488 -21.89800293 11.83469727 -21.91186523 10.58642578 C-21.13555763 6.34598382 -19.66109439 4.95381898 -16.3125 2.3125 C-11.05347211 -0.4252531 -5.79617521 -0.01833072 0 0 Z " fill="#FBFCFD" transform="translate(561.3125,28.6875)"/>
<path d="M0 0 C4.55380573 -0.06923015 9.10575343 -0.12885053 13.65966797 -0.16479492 C15.20562968 -0.1797933 16.75154948 -0.20019887 18.29736328 -0.22631836 C36.02603289 -0.51817186 36.02603289 -0.51817186 43.5625 4.8125 C45 7 45 7 45.1875 10 C43.45850889 14.36797753 41.19649573 15.01218623 37 17 C36.01 17.495 36.01 17.495 35 18 C32.37372867 18.08667255 29.77437517 18.11560135 27.1484375 18.09765625 C26.37440582 18.0962413 25.60037415 18.09482635 24.80288696 18.09336853 C22.32688558 18.08776403 19.85097412 18.07521083 17.375 18.0625 C15.69791797 18.05748558 14.02083453 18.05292257 12.34375 18.04882812 C8.22910403 18.03864336 4.11465285 18.01906894 0 18 C0 12.06 0 6.12 0 0 Z " fill="#F5F8FA" transform="translate(267,29)"/>
<path d="M0 0 C5.16040633 -0.09205878 10.317941 -0.17162277 15.47851562 -0.21972656 C17.23219479 -0.2397871 18.98580753 -0.26704251 20.73925781 -0.30175781 C23.26644318 -0.35052302 25.79274091 -0.37302392 28.3203125 -0.390625 C29.09867462 -0.41127014 29.87703674 -0.43191528 30.6789856 -0.45318604 C35.92975263 -0.45532888 38.80062044 0.58428231 43 4 C45 6 45 6 45.125 8.8125 C43.81902053 12.51277517 42.25145011 13.98749339 38.90185547 15.97680664 C32.13955162 18.36119293 24.57465501 17.49444716 17.5 17.3125 C15.80211613 17.28738817 14.10419654 17.26458008 12.40625 17.24414062 C8.26922435 17.19363982 4.13720718 17.09576868 0 17 C0 11.39 0 5.78 0 0 Z " fill="#FBFCFD" transform="translate(267,56)"/>
<path d="M0 0 C3.58875 -0.0928125 3.58875 -0.0928125 7.25 -0.1875 C8.37003418 -0.22846802 8.37003418 -0.22846802 9.51269531 -0.27026367 C12.52325708 -0.30791594 14.73255337 -0.13095074 17.44921875 1.19921875 C19.47267384 3.54887315 19.56707813 4.92349329 19.5625 8 C19.58441406 8.86625 19.60632813 9.7325 19.62890625 10.625 C19 13 19 13 16.921875 14.80078125 C13.32077836 16.27877145 10.56816593 16.29630372 6.6875 16.1875 C3.3771875 16.0946875 3.3771875 16.0946875 0 16 C0 10.72 0 5.44 0 0 Z " fill="#6CB1DB" transform="translate(373,91)"/>
<path d="M0 0 C3.58875 -0.0928125 3.58875 -0.0928125 7.25 -0.1875 C8.37003418 -0.22846802 8.37003418 -0.22846802 9.51269531 -0.27026367 C12.52325708 -0.30791594 14.73255337 -0.13095074 17.44921875 1.19921875 C19.47267384 3.54887315 19.56707813 4.92349329 19.5625 8 C19.58441406 8.86625 19.60632813 9.7325 19.62890625 10.625 C19 13 19 13 16.921875 14.80078125 C13.32077836 16.27877145 10.56816593 16.29630372 6.6875 16.1875 C3.3771875 16.0946875 3.3771875 16.0946875 0 16 C0 10.72 0 5.44 0 0 Z " fill="#62ADD9" transform="translate(299,91)"/>
<path d="M0 0 C3.58875 -0.0928125 3.58875 -0.0928125 7.25 -0.1875 C8.37003418 -0.22846802 8.37003418 -0.22846802 9.51269531 -0.27026367 C12.72890947 -0.31048797 14.71220619 -0.17511982 17.484375 1.51171875 C17.98453125 2.00285156 18.4846875 2.49398437 19 3 C18.67 4.65 18.34 6.3 18 8 C17.34 8 16.68 8 16 8 C16.495 8.94875 16.99 9.8975 17.5 10.875 C19 14 19 14 19 16 C16.6875 15.8125 16.6875 15.8125 14 15 C13.525625 14.175 13.05125 13.35 12.5625 12.5 C11.18556314 9.65646168 11.18556314 9.65646168 7.8125 9.1875 C6.884375 9.125625 5.95625 9.06375 5 9 C5 11.31 5 13.62 5 16 C3.35 16 1.7 16 0 16 C0 10.72 0 5.44 0 0 Z " fill="#67AFD9" transform="translate(420,91)"/>
<path d="M0 0 C5.14814203 1.02962841 5.94839667 1.47032187 9.3125 5.0625 C10.00988281 5.79597656 10.70726562 6.52945313 11.42578125 7.28515625 C11.94527344 7.85105469 12.46476563 8.41695312 13 9 C13.33 6.03 13.66 3.06 14 0 C15.65 0 17.3 0 19 0 C19 5.28 19 10.56 19 16 C14 16 14 16 11.54296875 14.03125 C10.76566406 13.1959375 9.98835937 12.360625 9.1875 11.5 C8.39730469 10.6646875 7.60710938 9.829375 6.79296875 8.96875 C5.90544922 7.99421875 5.90544922 7.99421875 5 7 C4.67 9.97 4.34 12.94 4 16 C2.68 16 1.36 16 0 16 C0 10.72 0 5.44 0 0 Z " fill="#66AEDA" transform="translate(557,91)"/>
<path d="M0 0 C6.6 0 13.2 0 20 0 C20 0.99 20 1.98 20 3 C15.05 3 10.1 3 5 3 C5 4.32 5 5.64 5 7 C8.63 7 12.26 7 16 7 C16 7.66 16 8.32 16 9 C12.04 9 8.08 9 4 9 C4 10.32 4 11.64 4 13 C9.28 13 14.56 13 20 13 C20 13.99 20 14.98 20 16 C13.4 16 6.8 16 0 16 C0 10.72 0 5.44 0 0 Z " fill="#72B5DD" transform="translate(275,91)"/>
<path d="M0 0 C5.14814203 1.02962841 5.94839667 1.47032187 9.3125 5.0625 C10.00988281 5.79597656 10.70726562 6.52945313 11.42578125 7.28515625 C11.94527344 7.85105469 12.46476562 8.41695312 13 9 C13.33 6.03 13.66 3.06 14 0 C15.32 0 16.64 0 18 0 C18 5.28 18 10.56 18 16 C12.85185797 14.97037159 12.05160333 14.52967813 8.6875 10.9375 C7.99011719 10.20402344 7.29273438 9.47054687 6.57421875 8.71484375 C6.05472656 8.14894531 5.53523438 7.58304687 5 7 C4.67 9.97 4.34 12.94 4 16 C2.68 16 1.36 16 0 16 C0 10.72 0 5.44 0 0 Z " fill="#5BA9D7" transform="translate(477,91)"/>
<path d="M0 0 C6.27 0 12.54 0 19 0 C19 0.99 19 1.98 19 3 C14.05 3 9.1 3 4 3 C4 4.32 4 5.64 4 7 C7.63 7 11.26 7 15 7 C15 7.66 15 8.32 15 9 C11.37 9 7.74 9 4 9 C4 10.32 4 11.64 4 13 C8.95 13 13.9 13 19 13 C19 13.99 19 14.98 19 16 C12.73 16 6.46 16 0 16 C0 10.72 0 5.44 0 0 Z " fill="#66AEDA" transform="translate(444,91)"/>
<path d="M0 0 C6.27 0 12.54 0 19 0 C19 0.99 19 1.98 19 3 C14.05 3 9.1 3 4 3 C4 4.32 4 5.64 4 7 C7.63 7 11.26 7 15 7 C15 7.66 15 8.32 15 9 C11.37 9 7.74 9 4 9 C4 10.32 4 11.64 4 13 C8.95 13 13.9 13 19 13 C19 13.99 19 14.98 19 16 C12.73 16 6.46 16 0 16 C0 10.72 0 5.44 0 0 Z " fill="#6CB2DC" transform="translate(397,91)"/>
<path d="M0 0 C1.40765625 -0.01160156 1.40765625 -0.01160156 2.84375 -0.0234375 C5.89181658 0.43377249 7.29863264 1.24631929 9.5 3.375 C9.5 4.035 9.5 4.695 9.5 5.375 C8.860625 5.21 8.22125 5.045 7.5625 4.875 C3.52413348 4.21567485 -0.41807258 4.29496221 -4.5 4.375 C-4.5 7.015 -4.5 9.655 -4.5 12.375 C-1.53 12.375 1.44 12.375 4.5 12.375 C4.83 11.385 5.16 10.395 5.5 9.375 C4.18 9.375 2.86 9.375 1.5 9.375 C1.5 8.715 1.5 8.055 1.5 7.375 C4.14 7.375 6.78 7.375 9.5 7.375 C9.8125 10.1875 9.8125 10.1875 9.5 13.375 C5.898784 16.976216 1.71089612 16.72898247 -3.09765625 16.7734375 C-6.06455257 16.28136689 -7.41457739 15.54081305 -9.5 13.375 C-10.03125 11 -10.03125 11 -10 8.375 C-10.0103125 7.50875 -10.020625 6.6425 -10.03125 5.75 C-9.5 3.375 -9.5 3.375 -7.8125 1.5859375 C-5.02269505 0.12505991 -3.13886995 -0.02586981 0 0 Z " fill="#62ACD9" transform="translate(261.5,90.625)"/>
<path d="M0 0 C1.40765625 -0.01160156 1.40765625 -0.01160156 2.84375 -0.0234375 C5.89181658 0.43377249 7.29863264 1.24631929 9.5 3.375 C9.5 4.035 9.5 4.695 9.5 5.375 C8.18 5.375 6.86 5.375 5.5 5.375 C5.5 4.715 5.5 4.055 5.5 3.375 C2.2 3.705 -1.1 4.035 -4.5 4.375 C-4.5 7.015 -4.5 9.655 -4.5 12.375 C-1.2 12.705 2.1 13.035 5.5 13.375 C5.5 12.055 5.5 10.735 5.5 9.375 C4.51 9.375 3.52 9.375 2.5 9.375 C2.5 8.715 2.5 8.055 2.5 7.375 C4.81 7.375 7.12 7.375 9.5 7.375 C9.8125 10.1875 9.8125 10.1875 9.5 13.375 C6.6027102 16.17882884 3.89080379 16.59410803 0 16.75 C-3.94813844 16.56544595 -6.72177261 16.42208811 -9.5 13.375 C-10.14533201 9.95243561 -10.3101172 6.77190521 -9.5 3.375 C-6.58635827 0.29313415 -4.14195574 -0.034137 0 0 Z " fill="#5FABD9" transform="translate(589.5,90.625)"/>
<path d="M0 0 C3.125 1.375 3.125 1.375 5 3 C5 3.66 5 4.32 5 5 C3.68 5 2.36 5 1 5 C1 4.34 1 3.68 1 3 C-2.3 3.33 -5.6 3.66 -9 4 C-9 6.64 -9 9.28 -9 12 C-5.7 12.33 -2.4 12.66 1 13 C1 11.68 1 10.36 1 9 C0.01 9 -0.98 9 -2 9 C-2 8.34 -2 7.68 -2 7 C0.31 7 2.62 7 5 7 C5.3125 9.8125 5.3125 9.8125 5 13 C1.398784 16.601216 -2.78910388 16.35398247 -7.59765625 16.3984375 C-10.56455257 15.90636689 -11.91457739 15.16581305 -14 13 C-14.53125 10.625 -14.53125 10.625 -14.5 8 C-14.5103125 7.13375 -14.520625 6.2675 -14.53125 5.375 C-14 3 -14 3 -12.27734375 1.2109375 C-8.32350216 -0.89144825 -4.35934904 -0.5352351 0 0 Z " fill="#65AEDA" transform="translate(523,91)"/>
<path d="M0 0 C3.21491228 0.88166534 4.14557399 2.3750171 5.8125 5.18164062 C6.31523437 6.09139648 6.31523437 6.09139648 6.828125 7.01953125 C7.17875 7.61443359 7.529375 8.20933594 7.890625 8.82226562 C9.39829535 11.41719825 10.62705381 13.85381768 11.578125 16.70703125 C9.203125 16.39453125 9.203125 16.39453125 6.578125 15.70703125 C5.918125 14.71703125 5.258125 13.72703125 4.578125 12.70703125 C2.37087427 12.34340307 2.37087427 12.34340307 -0.046875 12.51953125 C-0.86414063 12.54660156 -1.68140625 12.57367188 -2.5234375 12.6015625 C-3.14992188 12.63636719 -3.77640625 12.67117187 -4.421875 12.70703125 C-5.081875 14.02703125 -5.741875 15.34703125 -6.421875 16.70703125 C-8.071875 16.70703125 -9.721875 16.70703125 -11.421875 16.70703125 C-10.48572933 14.977131 -9.54789542 13.24814429 -8.609375 11.51953125 C-8.08730469 10.55660156 -7.56523437 9.59367187 -7.02734375 8.6015625 C-6.23263672 7.16876953 -6.23263672 7.16876953 -5.421875 5.70703125 C-4.73544922 4.28970703 -4.73544922 4.28970703 -4.03515625 2.84375 C-2.421875 0.70703125 -2.421875 0.70703125 0 0 Z " fill="#6BB1DB" transform="translate(333.421875,90.29296875)"/>
<path d="M0 0 C1.32 0 2.64 0 4 0 C4.33 3.96 4.66 7.92 5 12 C7.97 12 10.94 12 14 12 C14.33 8.04 14.66 4.08 15 0 C16.32 0 17.64 0 19 0 C19.1080023 2.10304477 19.18558987 4.20766909 19.25 6.3125 C19.29640625 7.48425781 19.3428125 8.65601562 19.390625 9.86328125 C19 13 19 13 17.328125 14.89453125 C14.54335556 16.21682949 12.57687733 16.40035888 9.5 16.375 C8.09234375 16.38660156 8.09234375 16.38660156 6.65625 16.3984375 C3.47841743 15.92176261 2.13392958 15.41812113 0 13 C-0.390625 9.86328125 -0.390625 9.86328125 -0.25 6.3125 C-0.21390625 5.13300781 -0.1778125 3.95351562 -0.140625 2.73828125 C-0.09421875 1.83464844 -0.0478125 0.93101563 0 0 Z " fill="#65AEDA" transform="translate(533,91)"/>
<path d="M0 0 C1.32 0 2.64 0 4 0 C4.33 3.96 4.66 7.92 5 12 C7.97 12 10.94 12 14 12 C14.33 8.04 14.66 4.08 15 0 C16.32 0 17.64 0 19 0 C19.13496251 2.10241603 19.23197307 4.2072961 19.3125 6.3125 C19.37050781 7.48425781 19.42851562 8.65601562 19.48828125 9.86328125 C19 13 19 13 16.796875 14.89453125 C13.9537451 16.01828232 11.97826472 16.40319875 8.9375 16.375 C7.68259766 16.38660156 7.68259766 16.38660156 6.40234375 16.3984375 C3.37521978 15.89637791 2.06313731 15.28975193 0 13 C-0.390625 9.86328125 -0.390625 9.86328125 -0.25 6.3125 C-0.21390625 5.13300781 -0.1778125 3.95351562 -0.140625 2.73828125 C-0.09421875 1.83464844 -0.0478125 0.93101563 0 0 Z " fill="#65AEDA" transform="translate(349,91)"/>
<path d="M0 0 C7.71484375 -0.09765625 7.71484375 -0.09765625 10 0 C11 1 11 1 11.1328125 2.8125 C11.13023437 3.534375 11.12765625 4.25625 11.125 5 C11.12757813 5.721875 11.13015625 6.44375 11.1328125 7.1875 C11 9 11 9 10 10 C6.66381769 10.14257189 3.34024394 10.04228157 0 10 C0 6.7 0 3.4 0 0 Z " fill="#FCFDFE" transform="translate(377,94)"/>
<path d="M0 0 C4.62 0 9.24 0 14 0 C14 0.33 14 0.66 14 1 C10.7 1 7.4 1 4 1 C4 4.63 4 8.26 4 12 C7.3 12 10.6 12 14 12 C13.67 12.66 13.34 13.32 13 14 C8.71 14 4.42 14 0 14 C0 9.38 0 4.76 0 0 Z " fill="#5AA9D7" transform="translate(373,92)"/>
<path d="M0 0 C1.65 0 3.3 0 5 0 C5 5.28 5 10.56 5 16 C3.35 16 1.7 16 0 16 C0 10.72 0 5.44 0 0 Z " fill="#78B7DE" transform="translate(500,91)"/>
<path d="M0 0 C1.32 0 2.64 0 4 0 C4.05386629 2.12472576 4.09273071 4.24983652 4.125 6.375 C4.14820313 7.55835937 4.17140625 8.74171875 4.1953125 9.9609375 C4 13 4 13 2 15 C-0.6015625 15.1953125 -0.6015625 15.1953125 -3.625 15.125 C-5.12933594 15.09792969 -5.12933594 15.09792969 -6.6640625 15.0703125 C-7.43492187 15.04710938 -8.20578125 15.02390625 -9 15 C-9 14.67 -9 14.34 -9 14 C-7.865625 13.855625 -6.73125 13.71125 -5.5625 13.5625 C-2.19222799 13.38828522 -2.19222799 13.38828522 -1 12 C-0.76572222 9.98405418 -0.58663876 7.961526 -0.4375 5.9375 C-0.35371094 4.83277344 -0.26992188 3.72804688 -0.18359375 2.58984375 C-0.12300781 1.73519531 -0.06242188 0.88054687 0 0 Z " fill="#59A8D7" transform="translate(548,91)"/>
<path d="M0 0 C1.32 0 2.64 0 4 0 C4.05386629 2.12472576 4.09273071 4.24983652 4.125 6.375 C4.14820313 7.55835937 4.17140625 8.74171875 4.1953125 9.9609375 C4 13 4 13 2 15 C-0.6015625 15.1953125 -0.6015625 15.1953125 -3.625 15.125 C-5.12933594 15.09792969 -5.12933594 15.09792969 -6.6640625 15.0703125 C-7.43492187 15.04710938 -8.20578125 15.02390625 -9 15 C-9 14.67 -9 14.34 -9 14 C-7.865625 13.855625 -6.73125 13.71125 -5.5625 13.5625 C-2.19222799 13.38828522 -2.19222799 13.38828522 -1 12 C-0.76572222 9.98405418 -0.58663876 7.961526 -0.4375 5.9375 C-0.35371094 4.83277344 -0.26992188 3.72804688 -0.18359375 2.58984375 C-0.12300781 1.73519531 -0.06242187 0.88054687 0 0 Z " fill="#57A7D7" transform="translate(364,91)"/>
<path d="M0 0 C1.32 0 2.64 0 4 0 C4 5.28 4 10.56 4 16 C2.68 16 1.36 16 0 16 C0 10.72 0 5.44 0 0 Z " fill="#61ABD8" transform="translate(468,91)"/>
<path d="M0 0 C3.3 0 6.6 0 10 0 C10 1.32 10 2.64 10 4 C9 5 9 5 6.93359375 5.09765625 C6.10988281 5.08605469 5.28617187 5.07445313 4.4375 5.0625 C3.61121094 5.05347656 2.78492188 5.04445313 1.93359375 5.03515625 C1.29550781 5.02355469 0.65742188 5.01195313 0 5 C0 3.35 0 1.7 0 0 Z " fill="#E1EEF7" transform="translate(303,100)"/>
<path d="M0 0 C2.64 0 5.28 0 8 0 C8.125 2.875 8.125 2.875 8 6 C6 8 6 8 3.3984375 8.1953125 C2.40070313 8.17210938 1.40296875 8.14890625 0.375 8.125 C-1.12933594 8.09792969 -1.12933594 8.09792969 -2.6640625 8.0703125 C-3.43492187 8.04710938 -4.20578125 8.02390625 -5 8 C-5 7.67 -5 7.34 -5 7 C-3.329375 6.87625 -3.329375 6.87625 -1.625 6.75 C2.05753944 6.42126213 2.05753944 6.42126213 3.4375 3.9375 C3.623125 3.298125 3.80875 2.65875 4 2 C2.68 2 1.36 2 0 2 C0 1.34 0 0.68 0 0 Z " fill="#56A6D6" transform="translate(263,98)"/>
<path d="M0 0 C3.3 0 6.6 0 10 0 C10 1.32 10 2.64 10 4 C6.7 4 3.4 4 0 4 C0 2.68 0 1.36 0 0 Z " fill="#F3F6FC" transform="translate(303,94)"/>
<path d="M0 0 C3.3 0 6.6 0 10 0 C9.67 1.32 9.34 2.64 9 4 C6.03 4 3.06 4 0 4 C0 2.68 0 1.36 0 0 Z " fill="#F5F8FA" transform="translate(425,94)"/>
<path d="M0 0 C1.7492214 -0.08142927 3.49954542 -0.13938541 5.25 -0.1875 C6.22453125 -0.22230469 7.1990625 -0.25710937 8.203125 -0.29296875 C11.39706651 0.04159216 12.72880304 0.76665633 15 3 C15 3.66 15 4.32 15 5 C14.34 4.855625 13.68 4.71125 13 4.5625 C10.57231107 4.10730833 8.26468568 3.84386539 5.8125 3.625 C4.554375 3.41875 3.29625 3.2125 2 3 C1.34 2.01 0.68 1.02 0 0 Z " fill="#7CB9DE" transform="translate(256,91)"/>
<path d="M0 0 C1.7492214 -0.08142927 3.49954542 -0.13938541 5.25 -0.1875 C6.22453125 -0.22230469 7.1990625 -0.25710937 8.203125 -0.29296875 C11.39706651 0.04159216 12.72880304 0.76665633 15 3 C15 3.66 15 4.32 15 5 C13.68 5 12.36 5 11 5 C11 4.34 11 3.68 11 3 C10.06027344 3.05220703 10.06027344 3.05220703 9.1015625 3.10546875 C8.28429687 3.13253906 7.46703125 3.15960938 6.625 3.1875 C5.81289063 3.22230469 5.00078125 3.25710937 4.1640625 3.29296875 C3.44992187 3.19628906 2.73578125 3.09960938 2 3 C1.34 2.01 0.68 1.02 0 0 Z " fill="#79B8DD" transform="translate(584,91)"/>
</svg>
